<svg xmlns="http://www.w3.org/2000/svg" xmlns:xlink="http://www.w3.org/1999/xlink" xmlns:lucid="lucid" width="2445.28" height="962.26"><g transform="translate(0 0)" lucid:page-tab-id="0_0"><path d="M1200 618.64c0 11.05-26.86 20-60 20s-60-8.95-60-20v-160c0-11.04 26.86-20 60-20s60 8.96 60 20z" stroke="#999" stroke-width="2" fill="#fff"/><path d="M1200 458.64c0 11.05-26.86 20-60 20s-60-8.95-60-20" stroke="#999" stroke-width="2" fill="none"/><path d="M691 270.64c-28.17 0-51-21.5-51-48 0-21.2 13.8-39.1 35.24-45.65C674 114.63 759 102.63 793 126.63c17-36 102-24 102 12 51-12 102 36 68 96 34 48 0 108-68 84-17 31.2-85 31.2-102 0-34 24-102 12-102-48z" stroke="#999" stroke-width="2" fill="#fff"/><use xlink:href="#a" transform="matrix(1,0,0,1,645,107.64150943396223) translate(134.525 118.60000000000001)"/><g filter="url(#b)"><path d="M1100 504.64c0-1.1.9-2 2-2h76c1.1 0 2 .9 2 2v116c0 1.1-.9 2-2 2h-76c-1.1 0-2-.9-2-2z" stroke="#000" stroke-width="0" fill="#fff"/><path d="M1112.73 553.55v10.9h54.54v-10.9zm10.9 8.18h-5.45v-5.45h5.46zM1112.73 520.82v10.9h54.54v-10.9zm10.9 8.2h-5.45v-5.47h5.46zM1112.73 537.2v10.9h54.54v-10.9zm10.9 8.17h-5.45v-5.46h5.46z" fill="#757575"/><use xlink:href="#c" transform="matrix(1,0,0,1,1100,575.6415094339623) translate(15.71818701171875 28.05751953125)"/></g><path d="M600 620.64c0 11.05-26.86 20-60 20s-60-8.95-60-20v-160c0-11.04 26.86-20 60-20s60 8.96 60 20z" stroke="#999" stroke-width="2" fill="#fff"/><path d="M600 460.64c0 11.05-26.86 20-60 20s-60-8.95-60-20" stroke="#999" stroke-width="2" fill="none"/><g filter="url(#b)"><path d="M500 502.64c0-1.1.9-2 2-2h76c1.1 0 2 .9 2 2v116c0 1.1-.9 2-2 2h-76c-1.1 0-2-.9-2-2z" stroke="#000" stroke-width="0" fill="#fff"/><path d="M512.73 551.55v10.9h54.54v-10.9zm10.9 8.18h-5.45v-5.45h5.46zM512.73 518.82v10.9h54.54v-10.9zm10.9 8.2h-5.45v-5.47h5.46zM512.73 535.2v10.9h54.54v-10.9zm10.9 8.17h-5.45v-5.46h5.46z" fill="#757575"/><use xlink:href="#d" transform="matrix(1,0,0,1,500,573.6415094339623) translate(21.965244140625 28.05751953125)"/></g><path d="M986 462.64c18.78 0 34 34.92 34 78s-15.22 78-34 78H714c-18.78 0-34-34.92-34-78s15.22-78 34-78z" stroke="#999" stroke-width="2" fill="#fff"/><path d="M986 618.64c-18.78 0-34-34.92-34-78s15.22-78 34-78" stroke="#999" stroke-width="2" fill="none"/><g filter="url(#e)"><path d="M786 476.64c0-1.1.9-2 2-2h84c1.1 0 2 .9 2 2v124c0 1.1-.9 2-2 2h-84c-1.1 0-2-.9-2-2z" stroke="#000" stroke-width="0" fill="#fff"/><path d="M845 514.14v-10.5c0-.83-.3-1.53-.88-2.12-.58-.6-1.3-.88-2.12-.88h-36c-.82 0-1.54.3-2.12.88-.58.6-.88 1.3-.88 2.12v30c0 .83.3 1.54.88 2.12.58.6 1.3.88 2.12.88h36c.83 0 1.54-.3 2.12-.88.58-.58.88-1.3.88-2.12v-10.5l12 12v-33z" fill="#757575"/><use xlink:href="#f" transform="matrix(1,0,0,1,786,555.6415094339623) translate(25.581110351562497 28.05751953125)"/></g><path d="M240 462.64h180v176H240z" stroke="#999" stroke-width="2" fill="#fff"/><g filter="url(#e)"><path d="M286 492.64c0-1.1.9-2 2-2h84c1.1 0 2 .9 2 2v124c0 1.1-.9 2-2 2h-84c-1.1 0-2-.9-2-2z" stroke="#000" stroke-width="0" fill="#fff"/><path d="M335.85 527.55h-11.7c-.35 0-.65.12-.9.36-.23.25-.35.55-.35.9v11.7c0 .33.12.62.36.86s.54.37.88.37h11.7c.35 0 .65-.13.9-.37.23-.24.35-.53.35-.87v-11.7c0-.35-.13-.65-.37-.9-.24-.23-.54-.35-.88-.35z" fill="#757575"/><path d="M354.37 526.6c.3 0 .57-.1.8-.32.2-.22.32-.5.32-.8v-1.78c0-.3-.12-.57-.34-.78-.22-.22-.48-.33-.78-.34h-5.7v-5.36c0-.34-.13-.63-.37-.87-.23-.24-.52-.37-.86-.37h-5.34v-5.7c0-.22-.06-.4-.16-.58-.1-.18-.25-.3-.42-.4-.18-.1-.38-.16-.58-.15h-1.8c-.3 0-.56.1-.78.33-.22.22-.32.48-.32.8v5.7H332v-5.7c-.02-.32-.12-.58-.34-.8-.22-.2-.48-.32-.78-.32h-1.8c-.3 0-.54.12-.75.34-.2.2-.32.47-.32.77v5.7h-5.96v-5.7c0-.3-.1-.57-.33-.78-.2-.23-.47-.34-.77-.34h-1.87c-.3 0-.57.1-.8.33-.2.2-.32.47-.32.78v5.7h-5.38c-.34.02-.63.14-.87.38-.25.24-.38.53-.38.87v5.32h-5.7c-.2 0-.4.05-.56.16-.18.1-.32.25-.42.43-.1.18-.14.36-.13.57v1.8c0 .2.05.37.15.55.1.17.24.3.4.4.18.1.37.15.57.15h5.7v5.97h-5.7c-.3 0-.56.12-.78.33-.22.22-.33.48-.33.8v1.8c0 .3.1.58.33.8.22.22.5.33.8.33h5.68v5.97h-5.68c-.3 0-.57.1-.8.32-.2.22-.3.48-.3.8v1.86c0 .3.1.57.3.8.23.2.5.32.8.32h5.7v5.32c0 .34.12.64.36.88.24.23.53.36.87.36h5.34v5.7c0 .22.03.42.14.6.1.18.25.33.43.43.18.1.38.14.6.14h1.8c.3 0 .57-.12.8-.33.2-.2.32-.47.32-.78v-5.72h5.96v5.7c0 .32.1.58.33.8.2.22.47.33.78.33h1.82c.3 0 .55-.12.77-.33.2-.22.3-.48.32-.78v-5.72h5.96v5.7c0 .32.1.58.32.8.22.22.5.33.8.33h1.86c.3 0 .58-.1.8-.33.2-.22.32-.48.33-.8v-5.7h5.34c.35 0 .64-.12.88-.36s.37-.54.37-.88v-5.33h5.72c.2 0 .4-.05.57-.15.18-.1.32-.24.4-.42.1-.18.16-.37.15-.58v-1.78c0-.3-.12-.57-.34-.78-.22-.22-.48-.33-.78-.33h-5.7v-6.07h5.7c.3 0 .56-.1.78-.33.22-.22.33-.48.33-.8v-1.77c-.02-.3-.13-.56-.35-.77-.22-.2-.48-.3-.78-.3h-5.7v-5.97h5.7zm-9.9 22.52h-28.95v-28.95h28.96v28.95z" fill="#757575"/><use xlink:href="#g" transform="matrix(1,0,0,1,286,571.6415094339623) translate(13.809688476562503 28.05751953125)"/></g><path d="M810 335.53V380H330v63.4" stroke="#666" stroke-width="2" fill="none"/><path d="M809.2 334l1.8.92v.6h-2v-1.63zM330 458.4l-4.64-14.26h9.28z" fill="#666"/><path d="M330 461.64l-6-18.5h12zm-3.26-16.5l3.26 10.03 3.26-10.03z" fill="#666"/><path d="M330 639.64v42h210v-21.76" stroke="#666" stroke-width="2" fill="none"/><path d="M331 639.64h-2v-1h2zM544.64 659.14h-9.28l4.64-14.26z" fill="#666"/><path d="M546 660.14h-12l6-18.5zm-9.26-2h6.52L540 648.1z" fill="#666"/><path d="M540 439.64v-40h99.5v141h21.26" stroke="#666" stroke-width="2" fill="none"/><path d="M541 440.68l-1-.04-1 .04v-1.04h2zM675.76 540.64l-14.26 4.64V536z" fill="#666"/><path d="M679 540.64l-18.5 6v-12zm-16.5 3.26l10.03-3.26-10.03-3.26z" fill="#666"/><path d="M850 443.4v-41.07h-5.9v-41.07" stroke="#666" stroke-width="2" fill="none"/><path d="M850 458.4l-4.64-14.26h9.28z" fill="#666"/><path d="M850 461.64l-6-18.5h12zm-3.26-16.5l3.26 10.03 3.26-10.03zM848.74 360.53h-9.27l4.64-14.27z" fill="#666"/><path d="M850.12 361.53H838.1l6-18.5zm-9.27-2h6.52l-3.26-10.03z" fill="#666"/><path d="M1021 540.64h29.5v139h89.5v-21.76" stroke="#666" stroke-width="2" fill="none"/><path d="M1021 541.64h-1.03l.03-1-.02-1h1.02zM1144.64 657.14h-9.28l4.64-14.26z" fill="#666"/><path d="M1146 658.14h-12l6-18.5zm-9.26-2h6.52L1140 646.1z" fill="#666"/><path d="M1260 462.64h180v176h-180z" stroke="#999" stroke-width="2" fill="#fff"/><g filter="url(#e)"><path d="M1306 492.64c0-1.1.9-2 2-2h84c1.1 0 2 .9 2 2v124c0 1.1-.9 2-2 2h-84c-1.1 0-2-.9-2-2z" stroke="#000" stroke-width="0" fill="#fff"/><path d="M1355.85 527.55h-11.7c-.35 0-.65.12-.9.36-.23.25-.35.55-.35.9v11.7c0 .33.12.62.36.86s.54.37.88.37h11.7c.35 0 .65-.13.9-.37.23-.24.35-.53.35-.87v-11.7c0-.35-.13-.65-.37-.9-.24-.23-.54-.35-.88-.35z" fill="#757575"/><path d="M1374.37 526.6c.3 0 .57-.1.8-.32.2-.22.32-.5.32-.8v-1.78c0-.3-.12-.57-.34-.78-.22-.22-.48-.33-.78-.34h-5.7v-5.36c0-.34-.13-.63-.37-.87-.23-.24-.52-.37-.86-.37h-5.34v-5.7c0-.22-.06-.4-.16-.58-.1-.18-.25-.3-.42-.4-.18-.1-.38-.16-.58-.15h-1.8c-.3 0-.56.1-.78.33-.22.22-.32.48-.32.8v5.7H1352v-5.7c-.02-.32-.12-.58-.34-.8-.22-.2-.48-.32-.78-.32h-1.8c-.3 0-.54.12-.75.34-.2.2-.32.47-.32.77v5.7h-5.96v-5.7c0-.3-.1-.57-.33-.78-.2-.23-.47-.34-.77-.34h-1.87c-.3 0-.57.1-.8.33-.2.2-.32.47-.32.78v5.7h-5.38c-.34.02-.63.14-.87.38-.25.24-.38.53-.38.87v5.32h-5.7c-.2 0-.4.05-.56.16-.18.1-.32.25-.42.43-.1.18-.14.36-.13.57v1.8c0 .2.05.37.15.55.1.17.24.3.4.4.18.1.37.15.57.15h5.7v5.97h-5.7c-.3 0-.56.12-.78.33-.22.22-.33.48-.33.8v1.8c0 .3.1.58.33.8.22.22.5.33.8.33h5.68v5.97h-5.68c-.3 0-.57.1-.8.32-.2.22-.3.48-.3.8v1.86c0 .3.1.57.3.8.23.2.5.32.8.32h5.7v5.32c0 .34.12.64.36.88.24.23.53.36.87.36h5.34v5.7c0 .22.03.42.14.6.1.18.25.33.43.43.18.1.38.14.6.14h1.8c.3 0 .57-.12.8-.33.2-.2.32-.47.32-.78v-5.72h5.96v5.7c0 .32.1.58.33.8.2.22.47.33.78.33h1.82c.3 0 .55-.12.77-.33.2-.22.3-.48.32-.78v-5.72h5.96v5.7c0 .32.1.58.32.8.22.22.5.33.8.33h1.86c.3 0 .58-.1.8-.33.2-.22.32-.48.33-.8v-5.7h5.34c.35 0 .64-.12.88-.36s.37-.54.37-.88v-5.33h5.72c.2 0 .4-.05.57-.15.18-.1.32-.24.4-.42.1-.18.16-.37.15-.58v-1.78c0-.3-.12-.57-.34-.78-.22-.22-.48-.33-.78-.33h-5.7v-6.07h5.7c.3 0 .56-.1.78-.33.22-.22.33-.48.33-.8v-1.77c-.02-.3-.13-.56-.35-.77-.22-.2-.48-.3-.78-.3h-5.7v-5.97h5.7zm-9.9 22.52h-28.95v-28.95h28.96v28.95z" fill="#757575"/><use xlink:href="#h" transform="matrix(1,0,0,1,1306,571.6415094339623) translate(4.720692382812501 28.05751953125)"/></g><path d="M1140 419.4v-21.76h210v64" stroke="#666" stroke-width="2" fill="none"/><path d="M1140 434.4l-4.64-14.26h9.28z" fill="#666"/><path d="M1140 437.64l-6-18.5h12zm-3.26-16.5l3.26 10.03 3.26-10.03zM1351 462.64h-2v-1h2z" fill="#666"/><path d="M320 22.64h1120v63H320z" stroke="#000" stroke-opacity="0" stroke-width="2" fill="#fff" fill-opacity="0"/><use xlink:href="#i" transform="matrix(1,0,0,1,325,27.64150943396226) translate(356.6111111111111 34.5)"/><use xlink:href="#j" transform="matrix(1,0,0,1,325,27.64150943396226) translate(602.7222222222222 34.5)"/><defs><path d="M33 0v-248h34V0H33" id="k"/><path d="M117-194c89-4 53 116 60 194h-32v-121c0-31-8-49-39-48C34-167 62-67 57 0H25l-1-190h30c1 10-1 24 2 32 11-22 29-35 61-36" id="l"/><path d="M59-47c-2 24 18 29 38 22v24C64 9 27 4 27-40v-127H5v-23h24l9-43h21v43h35v23H59v120" id="m"/><path d="M100-194c63 0 86 42 84 106H49c0 40 14 67 53 68 26 1 43-12 49-29l28 8c-11 28-37 45-77 45C44 4 14-33 15-96c1-61 26-98 85-98zm52 81c6-60-76-77-97-28-3 7-6 17-6 28h103" id="n"/><path d="M114-163C36-179 61-72 57 0H25l-1-190h30c1 12-1 29 2 39 6-27 23-49 58-41v29" id="o"/><g id="a"><use transform="matrix(0.05,0,0,0.05,0,0)" xlink:href="#k"/><use transform="matrix(0.05,0,0,0.05,5,0)" xlink:href="#l"/><use transform="matrix(0.05,0,0,0.05,15,0)" xlink:href="#m"/><use transform="matrix(0.05,0,0,0.05,20,0)" xlink:href="#n"/><use transform="matrix(0.05,0,0,0.05,30,0)" xlink:href="#o"/><use transform="matrix(0.05,0,0,0.05,35.95,0)" xlink:href="#l"/><use transform="matrix(0.05,0,0,0.05,45.95,0)" xlink:href="#n"/><use transform="matrix(0.05,0,0,0.05,55.95,0)" xlink:href="#m"/></g><path d="M417-1456L893-268l476-1188h249V0h-192c-4-403 4-794 18-1179L966 0H819L342-1176c15 384 23 773 19 1176H169v-1456h248" id="p"/><path d="M703-1476c426 0 599 333 586 795-11 408-187 701-584 701-422 0-587-333-587-793 0-282 106-507 280-617 89-56 190-86 305-86zm2 1333c312 0 393-279 393-632 0-308-116-536-395-536-269 0-394 232-394 523v107c-4 298 123 538 396 538" id="q"/><path d="M1288 0h-193L362-1122V0H169v-1456h193l735 1127v-1127h191V0" id="r"/><path d="M730-137c145 0 253-29 323-105v-327H716v-156h528v534C1148-51 964 20 729 20c-394 0-598-279-607-678v-127c-5-410 194-690 585-691 310-1 499 171 537 447h-192c-36-193-151-289-344-289-285 0-393 220-393 528v119c-5 296 140 534 415 534" id="s"/><g id="c"><use transform="matrix(0.0065107421875,0,0,0.0065107421875,0,0)" xlink:href="#p"/><use transform="matrix(0.0065107421875,0,0,0.0065107421875,11.64120703125,0)" xlink:href="#q"/><use transform="matrix(0.0065107421875,0,0,0.0065107421875,20.80833203125,0)" xlink:href="#r"/><use transform="matrix(0.0065107421875,0,0,0.0065107421875,30.314015625,0)" xlink:href="#s"/><use transform="matrix(0.0065107421875,0,0,0.0065107421875,39.3965009765625,0)" xlink:href="#q"/></g><filter id="b" filterUnits="objectBoundingBox" x="-.02" y="0" width="1.04" height="1.02"><feOffset result="offOut" in="SourceAlpha" dy="1"/><feGaussianBlur result="blurOut" in="offOut" stdDeviation=".75"/><feColorMatrix result="colorOut" in="blurOut" values="0 0 0 0 0 0 0 0 0 0 0 0 0 0 0 0 0 0 0.4 0"/><feBlend in="SourceGraphic" in2="colorOut"/></filter><path d="M1161-1018c0 201-122 330-278 388l342 618V0h-206L703-589H361V0H168v-1456h482c310-2 511 139 511 438zm-193 0c0-187-120-280-313-280H361v552h295c179 3 313-101 312-272" id="t"/><path d="M992-673H361v516h733V0H169v-1456h915v158H361v468h631v157" id="u"/><path d="M1222-777c17 480-206 763-650 777H169v-1456h411c408 9 627 269 642 679zm-190 4c3-312-149-522-447-525H361v1141h202c308 0 473-209 469-531v-85" id="v"/><path d="M375 0H183v-1456h192V0" id="w"/><path d="M631-137c179 0 314-70 314-231 0-71-25-127-75-166s-141-77-272-115c-165-47-285-106-360-175s-112-154-112-255c0-245 231-397 495-397 206 0 369 89 449 218 43 68 65 142 65 223H942c0-184-129-283-321-283-172 0-299 76-301 236 0 59 26 109 76 150s135 78 256 113c205 59 345 116 436 256 35 53 50 119 50 193-2 256-231 398-507 390C333 12 90-129 80-422h193c0 187 160 285 358 285" id="x"/><g id="d"><use transform="matrix(0.0065107421875,0,0,0.0065107421875,0,0)" xlink:href="#t"/><use transform="matrix(0.0065107421875,0,0,0.0065107421875,8.2100458984375,0)" xlink:href="#u"/><use transform="matrix(0.0065107421875,0,0,0.0065107421875,15.7885498046875,0)" xlink:href="#v"/><use transform="matrix(0.0065107421875,0,0,0.0065107421875,24.532476562499998,0)" xlink:href="#w"/><use transform="matrix(0.0065107421875,0,0,0.0065107421875,28.158959960937498,0)" xlink:href="#x"/></g><path d="M973-380H363L226 0H28l556-1456h168L1309 0h-197zM421-538h495l-248-681" id="y"/><path d="M569-1476c255 0 440 146 439 390 0 143-91 314-274 512L344-151h731V0H121v-133l504-560c75-85 125-155 155-207 105-184 6-424-211-424-183 0-293 113-291 297H93c-3-270 199-449 476-449" id="z"/><g id="f"><use transform="matrix(0.0065107421875,0,0,0.0065107421875,0,0)" xlink:href="#y"/><use transform="matrix(0.0065107421875,0,0,0.0065107421875,8.6983515625,0)" xlink:href="#t"/><use transform="matrix(0.0065107421875,0,0,0.0065107421875,16.9083974609375,0)" xlink:href="#w"/><use transform="matrix(0.0065107421875,0,0,0.0065107421875,20.652074218750002,0)" xlink:href="#y"/><use transform="matrix(0.0065107421875,0,0,0.0065107421875,29.350425781250006,0)" xlink:href="#z"/></g><filter id="e" filterUnits="objectBoundingBox" x="-.02" y="0" width="1.03" height="1.02"><feOffset result="offOut" in="SourceAlpha" dy="1"/><feGaussianBlur result="blurOut" in="offOut" stdDeviation=".75"/><feColorMatrix result="colorOut" in="blurOut" values="0 0 0 0 0 0 0 0 0 0 0 0 0 0 0 0 0 0 0.4 0"/><feBlend in="SourceGraphic" in2="colorOut"/></filter><path d="M688-137c238 0 323-102 359-325h193c-32 297-228 482-552 482-361 0-569-299-569-680 0-197 8-360 73-497 88-186 257-317 513-319 316-2 509 195 535 488h-193c-31-212-118-330-342-330-272 0-397 224-393 523v141c-3 282 115 517 376 517" id="A"/><path d="M483-459l28 192 41-173 288-1016h162l281 1016 40 176 31-196 226-996h193L1420 0h-175L945-1061l-23-111-23 111L588 0H413L61-1456h192" id="B"/><path d="M362-157h690V0H169v-1456h193v1299" id="C"/><g id="g"><use transform="matrix(0.0065107421875,0,0,0.0065107421875,0,0)" xlink:href="#A"/><use transform="matrix(0.0065107421875,0,0,0.0065107421875,8.678819335937499,0)" xlink:href="#t"/><use transform="matrix(0.0065107421875,0,0,0.0065107421875,16.888865234374997,0)" xlink:href="#y"/><use transform="matrix(0.0065107421875,0,0,0.0065107421875,25.587216796874998,0)" xlink:href="#B"/><use transform="matrix(0.0065107421875,0,0,0.0065107421875,37.417235351562496,0)" xlink:href="#C"/><use transform="matrix(0.0065107421875,0,0,0.0065107421875,44.592073242187496,0)" xlink:href="#u"/><use transform="matrix(0.0065107421875,0,0,0.0065107421875,52.170577148437495,0)" xlink:href="#t"/></g><path d="M1175-1298H707V0H516v-1298H49v-158h1126v158" id="D"/><path d="M313-157h833V0H86v-144l798-1154H99v-158h1015v141" id="E"/><g id="h"><use transform="matrix(0.0065107421875,0,0,0.0065107421875,0,0)" xlink:href="#A"/><use transform="matrix(0.0065107421875,0,0,0.0065107421875,8.678819335937499,0)" xlink:href="#y"/><use transform="matrix(0.0065107421875,0,0,0.0065107421875,17.377170898437498,0)" xlink:href="#D"/><use transform="matrix(0.0065107421875,0,0,0.0065107421875,25.3332978515625,0)" xlink:href="#u"/><use transform="matrix(0.0065107421875,0,0,0.0065107421875,32.9118017578125,0)" xlink:href="#s"/><use transform="matrix(0.0065107421875,0,0,0.0065107421875,41.994287109374994,0)" xlink:href="#q"/><use transform="matrix(0.0065107421875,0,0,0.0065107421875,51.16141210937499,0)" xlink:href="#t"/><use transform="matrix(0.0065107421875,0,0,0.0065107421875,59.3714580078125,0)" xlink:href="#w"/><use transform="matrix(0.0065107421875,0,0,0.0065107421875,62.99794140625,0)" xlink:href="#E"/><use transform="matrix(0.0065107421875,0,0,0.0065107421875,70.98011132812499,0)" xlink:href="#u"/></g><path d="M199 0l-22-63H83L61 0H9l90-248h61L250 0h-51zm-33-102l-36-108c-10 38-24 72-36 108h72" id="F"/><path d="M135-150c-39-12-60 13-60 57V0H25l-1-190h47c2 13-1 29 3 40 6-28 27-53 61-41v41" id="G"/><path d="M190-63c-7 42-38 67-86 67-59 0-84-38-90-98-12-110 154-137 174-36l-49 2c-2-19-15-32-35-32-30 0-35 28-38 64-6 74 65 87 74 30" id="H"/><path d="M114-157C55-157 80-60 75 0H25v-261h50l-1 109c12-26 28-41 61-42 86-1 58 113 63 194h-50c-7-57 23-157-34-157" id="I"/><path d="M25-224v-37h50v37H25zM25 0v-190h50V0H25" id="J"/><path d="M115-3C79 11 28 4 28-45v-112H4v-33h27l15-45h31v45h36v33H77v99c-1 23 16 31 38 25v30" id="K"/><path d="M185-48c-13 30-37 53-82 52C43 2 14-33 14-96s30-98 90-98c62 0 83 45 84 108H66c0 31 8 55 39 56 18 0 30-7 34-22zm-45-69c5-46-57-63-70-21-2 6-4 13-4 21h74" id="L"/><path d="M85 4C-2 5 27-109 22-190h50c7 57-23 150 33 157 60-5 35-97 40-157h50l1 190h-47c-2-12 1-28-3-38-12 25-28 42-61 42" id="M"/><g id="i"><use transform="matrix(0.1111111111111111,0,0,0.1111111111111111,0,0)" xlink:href="#F"/><use transform="matrix(0.1111111111111111,0,0,0.1111111111111111,28.777777777777775,0)" xlink:href="#G"/><use transform="matrix(0.1111111111111111,0,0,0.1111111111111111,44.33333333333333,0)" xlink:href="#H"/><use transform="matrix(0.1111111111111111,0,0,0.1111111111111111,66.55555555555554,0)" xlink:href="#I"/><use transform="matrix(0.1111111111111111,0,0,0.1111111111111111,90.88888888888887,0)" xlink:href="#J"/><use transform="matrix(0.1111111111111111,0,0,0.1111111111111111,101.99999999999999,0)" xlink:href="#K"/><use transform="matrix(0.1111111111111111,0,0,0.1111111111111111,115.22222222222219,0)" xlink:href="#L"/><use transform="matrix(0.1111111111111111,0,0,0.1111111111111111,137.44444444444443,0)" xlink:href="#H"/><use transform="matrix(0.1111111111111111,0,0,0.1111111111111111,159.66666666666666,0)" xlink:href="#K"/><use transform="matrix(0.1111111111111111,0,0,0.1111111111111111,172.88888888888889,0)" xlink:href="#M"/><use transform="matrix(0.1111111111111111,0,0,0.1111111111111111,197.22222222222223,0)" xlink:href="#G"/><use transform="matrix(0.1111111111111111,0,0,0.1111111111111111,212.77777777777777,0)" xlink:href="#L"/></g><path d="M24-248c120-7 223 5 221 122C244-46 201 0 124 0H24v-248zM76-40c74 7 117-18 117-86 0-67-45-88-117-82v168" id="N"/><path d="M186 0v-106H76V0H24v-248h52v99h110v-99h50V0h-50" id="O"/><path d="M136-208V0H84v-208H4v-40h212v40h-80" id="P"/><path d="M135-194c52 0 70 43 70 98 0 56-19 99-73 100-30 1-46-15-58-35L72 0H24l1-261h50v104c11-23 29-37 60-37zM114-30c31 0 40-27 40-66 0-37-7-63-39-63s-41 28-41 65c0 36 8 64 40 64" id="Q"/><path d="M133-34C117-15 103 5 69 4 32 3 11-16 11-54c-1-60 55-63 116-61 1-26-3-47-28-47-18 1-26 9-28 27l-52-2c7-38 36-58 82-57s74 22 75 68l1 82c-1 14 12 18 25 15v27c-30 8-71 5-69-32zm-48 3c29 0 43-24 42-57-32 0-66-3-65 30 0 17 8 27 23 27" id="R"/><path d="M123 10C108 53 80 86 19 72V37c35 8 53-11 59-39L3-190h52l48 148c12-52 28-100 44-148h51" id="S"/><g id="j"><use transform="matrix(0.1111111111111111,0,0,0.1111111111111111,0,0)" xlink:href="#N"/><use transform="matrix(0.1111111111111111,0,0,0.1111111111111111,28.777777777777775,0)" xlink:href="#O"/><use transform="matrix(0.1111111111111111,0,0,0.1111111111111111,57.55555555555555,0)" xlink:href="#P"/><use transform="matrix(0.1111111111111111,0,0,0.1111111111111111,81.88888888888889,0)" xlink:href="#Q"/><use transform="matrix(0.1111111111111111,0,0,0.1111111111111111,106.22222222222221,0)" xlink:href="#R"/><use transform="matrix(0.1111111111111111,0,0,0.1111111111111111,128.44444444444443,0)" xlink:href="#S"/></g></defs></g></svg>